<svg width="66" height="22" viewBox="0 0 66 22" fill="none" xmlns="http://www.w3.org/2000/svg">
<path d="M59.1016 12.6758C59.1133 12.5312 59.1367 12.4082 59.1719 12.3066C59.2109 12.209 59.3066 12.1328 59.459 12.0781C59.4941 12.0781 59.5234 12.0723 59.5469 12.0605C59.5703 12.0449 59.5977 12.0215 59.6289 11.9902C59.6641 11.959 59.6875 11.9395 59.6992 11.9316C60.0938 11.6035 60.5391 11.3164 61.0352 11.0703C61.5312 10.8242 62.0293 10.6367 62.5293 10.5078C63.0332 10.3789 63.4902 10.3145 63.9004 10.3145C64.627 10.3379 65 10.4902 65.0195 10.7715C65.0195 11.1934 64.8438 11.6133 64.4922 12.0312C64.1445 12.4453 63.7188 12.8457 63.2148 13.2324C62.9727 13.4082 62.7617 13.4961 62.582 13.4961C62.4727 13.4961 62.418 13.4355 62.418 13.3145C62.418 12.877 62.625 12.4414 63.0391 12.0078C63.0898 11.957 63.1426 11.9004 63.1973 11.8379C63.2559 11.7793 63.3047 11.7266 63.3438 11.6797C63.3828 11.6328 63.416 11.584 63.4434 11.5332C63.4707 11.4785 63.4844 11.4238 63.4844 11.3691C63.3359 11.2676 63.1582 11.2168 62.9512 11.2168C62.5215 11.2168 62.0625 11.3242 61.5742 11.5391C61.0859 11.7539 60.666 12.0371 60.3145 12.3887C60.2402 12.4746 60.2031 12.5469 60.2031 12.6055L60.291 12.6758C60.4746 12.7344 60.625 12.793 60.7422 12.8516C60.8633 12.9102 60.9531 13.0078 61.0117 13.1445C61.0117 13.4102 60.918 13.6074 60.7305 13.7363C60.457 13.9277 60.0938 14.0234 59.6406 14.0234C59.4258 14.0195 59.2383 13.957 59.0781 13.8359C58.918 13.7109 58.8047 13.5605 58.7383 13.3848C58.7148 13.3262 58.7031 13.2676 58.7031 13.209C58.7031 13.0918 58.7441 12.9844 58.8262 12.8867C58.9082 12.7891 59 12.7188 59.1016 12.6758Z" fill="black"/>
<path d="M52.252 12.3301C52.4004 12.0723 52.6094 11.8652 52.8789 11.709C53.1484 11.5488 53.4863 11.3965 53.8926 11.252C54.8535 10.9668 55.6836 10.6719 56.3828 10.3672C57.0781 10.0586 57.6367 9.66016 58.0586 9.17188C58.0898 9.12891 58.1055 9.08984 58.1055 9.05469C58.1055 8.88672 57.832 8.80273 57.2852 8.80273C57.1719 8.80273 57.0312 8.80859 56.8633 8.82031C56.6953 8.83203 56.5684 8.83789 56.4824 8.83789C56.3418 8.83789 56.1836 8.80273 56.0078 8.73242C55.832 8.66211 55.7441 8.57031 55.7441 8.45703C55.7441 8.37891 55.791 8.29883 55.8848 8.2168C56.6309 7.68945 57.2871 7.21289 57.8535 6.78711C58.4238 6.36133 58.9863 5.91211 59.541 5.43945C60.0996 4.9668 60.625 4.47852 61.1172 3.97461C61.6055 3.4668 62.0664 2.92383 62.5 2.3457L61.5391 2.83789C61.1484 3.08789 60.7715 3.35352 60.4082 3.63477C60.0449 3.91602 59.6992 4.20117 59.3711 4.49023C59.043 4.77539 58.6816 5.10156 58.2871 5.46875C57.8574 5.85156 57.4316 6.25195 57.0098 6.66992C56.5918 7.08789 56.0508 7.63672 55.3867 8.31641C54.7227 8.99219 54.168 9.54492 53.7227 9.97461C53.2773 10.4004 52.8184 10.8145 52.3457 11.2168C52.3457 11.1309 52.3633 11.0527 52.3984 10.9824C52.4336 10.9082 52.4902 10.8145 52.5684 10.7012C52.6465 10.584 52.6934 10.5156 52.709 10.4961C53.2246 9.80469 53.793 9.13086 54.4141 8.47461C55.0352 7.81836 55.6797 7.18164 56.3477 6.56445C57.0195 5.94336 57.7441 5.29688 58.5215 4.625C59.2988 3.95312 60.0918 3.26953 60.9004 2.57422C61.2949 2.23828 61.7109 1.92578 62.1484 1.63672C62.5898 1.34375 63.0781 1.04492 63.6133 0.740234C63.9219 0.619141 64.1621 0.558594 64.334 0.558594C64.6699 0.558594 64.8379 0.695312 64.8379 0.96875C64.8066 1.15234 64.7422 1.30469 64.6445 1.42578C64.5508 1.54688 64.3945 1.71289 64.1758 1.92383C63.8828 2.23242 63.3281 2.77734 62.5117 3.55859C61.3438 4.65234 60.1836 5.70117 59.0312 6.70508L57.6367 7.91211C57.6133 7.92383 57.6016 7.9375 57.6016 7.95312C57.6016 7.98828 57.6914 8.02539 57.8711 8.06445C58.0508 8.10352 58.3105 8.16406 58.6504 8.24609C58.9941 8.32812 59.2656 8.43164 59.4648 8.55664C59.6641 8.67773 59.7637 8.83594 59.7637 9.03125C59.7637 9.3125 59.6309 9.51953 59.3652 9.65234C59.2051 9.73438 58.9473 9.84766 58.5918 9.99219C58.2402 10.1367 57.9707 10.252 57.7832 10.3379C57.5996 10.4199 57.4121 10.5195 57.2207 10.6367L57.2441 10.6719C57.3301 10.7227 57.4648 10.7754 57.6484 10.8301C57.832 10.8809 57.9785 10.9375 58.0879 11C58.1973 11.0625 58.2754 11.1543 58.3223 11.2754C58.3535 11.3379 58.3691 11.4258 58.3691 11.5391C58.3691 11.7773 58.2754 12.0371 58.0879 12.3184C57.9043 12.5957 57.6289 12.8438 57.2617 13.0625C56.707 13.3789 56.0234 13.6348 55.2109 13.8301C54.5898 13.9434 54.1094 14 53.7695 14C53.1016 14 52.6348 13.8516 52.3691 13.5547C52.3301 13.4961 52.2949 13.4375 52.2637 13.3789C52.2246 13.3242 52.1895 13.2598 52.1582 13.1855C52.1309 13.1074 52.1172 13.0215 52.1172 12.9277C52.1172 12.7598 52.1621 12.5605 52.252 12.3301ZM52.9844 13.0859C53.1836 13.2695 53.4824 13.3613 53.8809 13.3613C54.7246 13.3613 55.5938 13.0898 56.4883 12.5469C56.6758 12.3789 56.8027 12.2598 56.8691 12.1895C56.9395 12.1152 56.9883 12.0215 57.0156 11.9082C56.5078 11.6855 56.0586 11.5742 55.668 11.5742C55.125 11.5742 54.668 11.623 54.2969 11.7207C54.0234 11.7871 53.7246 11.9336 53.4004 12.1602C53.0723 12.3828 52.9082 12.6113 52.9082 12.8457C52.9082 12.9238 52.9336 13.0039 52.9844 13.0859Z" fill="black"/>
<path d="M50.0547 11.334C50.0547 11.2676 50.0312 11.1934 49.9844 11.1113C49.9375 11.0293 49.8496 10.9883 49.7207 10.9883C49.5449 10.9883 49.3398 11.0488 49.1055 11.1699C48.8711 11.291 48.6992 11.5059 48.5898 11.8145C48.5898 11.8535 48.5938 11.8809 48.6016 11.8965C48.7539 12.0059 48.8301 12.1191 48.8301 12.2363C48.8301 12.3418 48.7539 12.457 48.6016 12.582C48.5547 12.5977 48.4766 12.6055 48.3672 12.6055C48.0625 12.5898 47.873 12.4902 47.7988 12.3066C47.8223 11.9512 47.9277 11.5898 48.1152 11.2227C48.3027 10.8555 48.5898 10.584 48.9766 10.4082C49.2461 10.3066 49.5137 10.2559 49.7793 10.2559C50.1152 10.2559 50.3828 10.332 50.582 10.4844C50.7266 10.5898 50.834 10.7227 50.9043 10.8828C50.9785 11.043 51.0156 11.1895 51.0156 11.3223C51.0156 11.3691 51.0078 11.418 50.9922 11.4688C50.9922 11.6641 50.916 11.9395 50.7637 12.2949C50.6113 12.6504 50.4004 13.0273 50.1309 13.4258C49.8652 13.8203 49.5645 14.1797 49.2285 14.5039C48.6152 15.0938 48.0664 15.6758 47.582 16.25C47.1016 16.8281 46.5371 17.541 45.8887 18.3887C45.2363 19.2363 44.7363 19.8691 44.3887 20.2871C44.3379 20.3848 44.2871 20.5547 44.2363 20.7969C44.1816 21.0391 44.1133 21.2305 44.0312 21.3711C43.9453 21.5156 43.7969 21.6191 43.5859 21.6816C43.5625 21.6973 43.5137 21.7051 43.4395 21.7051C43.3145 21.7051 43.1895 21.666 43.0645 21.5879C42.9395 21.5098 42.877 21.4121 42.877 21.2949C42.877 21.2246 42.9004 21.1543 42.9473 21.084C44.1816 18.9512 45.8789 16.7949 48.0391 14.6152C48.168 14.4941 48.4004 14.2188 48.7363 13.7891C49.0762 13.3594 49.3809 12.9141 49.6504 12.4531C49.9199 11.9922 50.0547 11.6191 50.0547 11.334Z" fill="black"/>
<path d="M42.5781 13.1797C42.8594 13.1797 43.0879 13.1504 43.2637 13.0918C43.4395 13.0293 43.627 12.9277 43.8262 12.7871C43.9668 12.6816 44.125 12.5332 44.3008 12.3418C44.4766 12.1504 44.5898 12.002 44.6406 11.8965C44.2422 11.8066 43.707 11.7617 43.0352 11.7617C42.8359 11.7773 42.6387 11.8242 42.4434 11.9023C42.248 11.9805 42.0977 12.0879 41.9922 12.2246C41.9023 12.3066 41.8574 12.4219 41.8574 12.5703C41.8574 12.8867 42.0977 13.0898 42.5781 13.1797ZM47.4297 7.50781C47.1562 7.50781 46.9082 7.53906 46.6855 7.60156C46.4668 7.66406 46.2656 7.79688 46.082 8C46.082 8.23828 45.998 8.41016 45.8301 8.51562C45.6855 8.63672 45.4551 8.69727 45.1387 8.69727C44.9551 8.63086 44.8574 8.50586 44.8457 8.32227C44.8457 8.13477 44.9688 7.90625 45.2148 7.63672C45.4961 7.34766 45.8496 7.10742 46.2754 6.91602C46.6973 6.73242 47.1172 6.64062 47.5352 6.64062C48.207 6.64062 48.6758 6.83398 48.9414 7.2207C49.0273 7.37305 49.0703 7.54102 49.0703 7.72461C49.0703 7.86914 49.0234 8.07617 48.9297 8.3457C48.6953 8.69727 48.4219 9.04492 48.1094 9.38867C47.8008 9.73242 47.4629 10.1035 47.0957 10.502C46.7324 10.9004 46.4355 11.2617 46.2051 11.5859C46.1973 11.5859 46.1934 11.5879 46.1934 11.5918C46.1934 11.5996 46.2246 11.6211 46.2871 11.6562C46.3691 11.707 46.4258 11.7324 46.457 11.7324C46.1367 11.8105 45.8555 11.9434 45.6133 12.1309C45.375 12.3145 45.0781 12.5801 44.7227 12.9277C44.3711 13.2715 44.0723 13.5293 43.8262 13.7012C43.5801 13.8691 43.3047 13.9688 43 14C42.3125 13.9922 41.8281 13.8516 41.5469 13.5781C41.2578 13.3047 41.1133 13 41.1133 12.6641C41.1133 12.5508 41.1289 12.4473 41.1602 12.3535C41.4023 11.8027 41.8633 11.3984 42.543 11.1406C42.7969 11.0781 43.0781 11.0469 43.3867 11.0469C43.6914 11.0469 44.0176 11.0684 44.3652 11.1113C44.7168 11.1504 45.0254 11.2051 45.291 11.2754C46.9316 9.63477 47.8203 8.47461 47.957 7.79492C47.957 7.60352 47.7812 7.50781 47.4297 7.50781Z" fill="black"/>
<path d="M40.5625 10.5078C40.4961 10.5508 40.4629 10.6191 40.4629 10.7129C40.4629 10.7832 40.498 10.9258 40.5684 11.1406C40.6426 11.3555 40.6797 11.5117 40.6797 11.6094C40.6445 11.875 40.541 12.1094 40.3691 12.3125C40.1973 12.5156 39.9902 12.6914 39.748 12.8398C39.5059 12.9844 39.1934 13.1465 38.8105 13.3262C38.4316 13.502 38.2188 13.6016 38.1719 13.625C37.6523 13.8594 37.0957 13.9766 36.502 13.9766C35.752 13.9336 35.3359 13.5898 35.2539 12.9453C35.2539 12.7695 35.3184 12.5723 35.4473 12.3535C35.5762 12.1348 35.7246 11.9863 35.8926 11.9082C36.3301 11.5254 36.7285 11.334 37.0879 11.334C37.2949 11.334 37.4766 11.4062 37.6328 11.5508C37.6328 11.7344 37.5605 11.9082 37.416 12.0723C37.2754 12.2363 37.123 12.3379 36.959 12.377C36.8105 12.4199 36.6758 12.5059 36.5547 12.6348C36.4336 12.7598 36.373 12.875 36.373 12.9805C36.373 13.0977 36.4648 13.1562 36.6484 13.1562C36.7422 13.1562 36.8535 13.1406 36.9824 13.1094C37.1387 13.1094 37.4004 13.0605 37.7676 12.9629C38.1348 12.8613 38.4453 12.7461 38.6992 12.6172C38.8281 12.5547 38.9316 12.5039 39.0098 12.4648C39.0879 12.4219 39.1641 12.3789 39.2383 12.3359C39.3125 12.293 39.3809 12.2422 39.4434 12.1836C39.5098 12.125 39.5664 12.0625 39.6133 11.9961C39.7266 11.8477 39.7832 11.7031 39.7832 11.5625C39.7832 11.3711 39.6992 11.1543 39.5312 10.9121C39.4805 10.7754 39.4551 10.6562 39.4551 10.5547C39.4551 10.3359 39.5312 10.1602 39.6836 10.0273C39.8398 9.89062 40.0352 9.82227 40.2695 9.82227C40.6758 9.82227 41.0566 9.98242 41.4121 10.3027L41.4238 10.3848L40.5625 10.5078Z" fill="black"/>
<path d="M34.3281 10.6602C34.7227 10.6602 35.0586 10.8164 35.3359 11.1289C35.4336 11.2734 35.4824 11.4219 35.4824 11.5742C35.4824 11.9883 35.166 12.4004 34.5332 12.8105C33.7402 13.373 33.1641 13.7402 32.8047 13.9121C32.7852 13.916 32.7246 13.9375 32.623 13.9766C32.5215 14.0156 32.4453 14.0352 32.3945 14.0352C32.3398 14.0352 32.3125 14.0039 32.3125 13.9414C32.4258 13.6953 32.5664 13.4961 32.7344 13.3438C32.9062 13.1914 33.1602 12.9863 33.4961 12.7285C33.8359 12.4707 34.0859 12.2539 34.2461 12.0781C34.3672 11.9102 34.4277 11.7832 34.4277 11.6973C34.4277 11.6426 34.4141 11.5977 34.3867 11.5625C34.3516 11.4219 34.2012 11.3516 33.9355 11.3516C33.5215 11.3516 33.0332 11.5293 32.4707 11.8848C32.2363 12.0371 32.0723 12.2012 31.9785 12.377C32.1309 12.4316 32.207 12.5488 32.207 12.7285C32.207 12.9512 31.9746 13.0625 31.5098 13.0625C31.4668 13.0703 31.3906 13.0938 31.2812 13.1328C31.1758 13.1758 31.0996 13.1973 31.0527 13.1973C30.873 13.1855 30.6934 13.1328 30.5137 13.0391C30.3301 12.9414 30.2383 12.8418 30.2383 12.7402C30.2383 12.6621 30.3027 12.5898 30.4316 12.5234C30.5566 12.4766 30.6719 12.4355 30.7773 12.4004C30.8789 12.3613 30.9688 12.3066 31.0469 12.2363C31.125 12.166 31.1641 12.0703 31.1641 11.9492C31.1055 11.7734 30.9766 11.6562 30.7773 11.5977C30.375 11.5977 29.998 11.6914 29.6465 11.8789C29.2949 12.0625 29.0117 12.2754 28.7969 12.5176C28.582 12.7559 28.4746 12.9375 28.4746 13.0625L28.5449 13.168C28.8027 13.0664 28.998 13.0156 29.1309 13.0156C29.4043 13.0156 29.5938 13.0996 29.6992 13.2676C29.7305 13.3105 29.7461 13.3711 29.7461 13.4492C29.7461 13.5938 29.6719 13.7266 29.5234 13.8477C29.3789 13.9648 29.1641 14.0273 28.8789 14.0352C28.5312 14.0352 28.3398 13.8711 28.3047 13.543C28.2148 13.5352 28.1172 13.4922 28.0117 13.4141C27.9062 13.332 27.8398 13.2422 27.8125 13.1445C27.7969 13.0977 27.7891 13.0625 27.7891 13.0391C27.7891 12.9531 27.8164 12.8691 27.8711 12.7871C27.9297 12.7051 27.998 12.6523 28.0762 12.6289C28.2012 12.2812 28.4531 11.9473 28.832 11.627C29.2109 11.3066 29.5879 11.0801 29.9629 10.9473C30.2754 10.8496 30.5625 10.8008 30.8242 10.8008C31.3477 10.8008 31.7207 10.9551 31.9434 11.2637L32.0371 11.4453V11.4688L32.0957 11.6211C32.2988 11.5 32.5195 11.3691 32.7578 11.2285C33 11.0879 33.2617 10.957 33.543 10.8359C33.8281 10.7188 34.0898 10.6602 34.3281 10.6602ZM45.4082 4.41992C45.4473 4.4043 45.4941 4.39648 45.5488 4.39648C45.6387 4.39648 45.6836 4.4375 45.6836 4.51953C45.6836 4.60547 45.6445 4.72852 45.5664 4.88867C45.3789 5.08398 44.752 5.4082 43.6855 5.86133C42.6191 6.31055 41.2734 6.83008 39.6484 7.41992C38.0273 8.00586 36.3789 8.57617 34.7031 9.13086C33.0312 9.68164 31.5938 10.1289 30.3906 10.4727C30.3438 10.4727 30.3203 10.4551 30.3203 10.4199C30.3203 10.3496 30.3574 10.2598 30.4316 10.1504C30.5098 10.0371 30.5859 9.96875 30.6602 9.94531C31.6055 9.66016 32.7949 9.25 34.2285 8.71484C35.666 8.17578 37.1582 7.60156 38.7051 6.99219C40.252 6.38281 41.7207 5.80664 43.1113 5.26367C44.498 4.7168 45.2637 4.43555 45.4082 4.41992Z" fill="black"/>
<path d="M19.0645 17.5273C19.2012 17.7344 19.5137 17.8789 20.002 17.9609H20.0195C20.6172 17.9609 21.207 17.8477 21.7891 17.6211C22.3672 17.3945 22.9727 17.084 23.6055 16.6895C24.5352 16.0605 25.2129 15.4277 25.6387 14.791C25.6465 14.7754 25.6758 14.7324 25.7266 14.6621C25.7812 14.5918 25.8242 14.5273 25.8555 14.4688C25.8867 14.4102 25.9023 14.3535 25.9023 14.2988C25.9023 14.2402 25.8691 14.1895 25.8027 14.1465C25.6855 14.0801 25.5508 14.0469 25.3984 14.0469C25.3359 14.0469 25.2188 14.0566 25.0469 14.0762C24.2734 14.2285 23.6387 14.3633 23.1426 14.4805C22.6504 14.5977 22.1367 14.7578 21.6016 14.9609C21.0625 15.1641 20.5645 15.4316 20.1074 15.7637C19.6504 16.0918 19.2871 16.4883 19.0176 16.9531C18.9863 17 18.9707 17.0879 18.9707 17.2168C18.9707 17.3379 19.002 17.4414 19.0645 17.5273ZM26.957 10.6133C26.9336 10.5312 26.8164 10.4512 26.6055 10.373C26.5195 10.3613 26.3848 10.3555 26.2012 10.3555C25.6348 10.3555 25.0469 10.4941 24.4375 10.7715C24.3711 10.834 24.3379 10.918 24.3379 11.0234C24.3574 11.0742 24.3965 11.1074 24.4551 11.123C24.5176 11.1387 24.5801 11.1562 24.6426 11.1758C24.709 11.1914 24.7559 11.2285 24.7832 11.2871C24.7832 11.3965 24.707 11.5332 24.5547 11.6973C24.4062 11.8574 24.2266 11.9805 24.0156 12.0664C23.8711 12.0898 23.7422 12.1016 23.6289 12.1016C23.4219 12.1016 23.2539 12.0664 23.125 11.9961C23 11.9258 22.9238 11.8457 22.8965 11.7559C22.8965 11.4863 22.9199 11.3105 22.9668 11.2285C23.0254 11.123 23.0918 11.0332 23.166 10.959C23.2402 10.8809 23.3301 10.8047 23.4355 10.7305C23.541 10.6562 23.6348 10.5938 23.7168 10.543C23.8027 10.4883 23.918 10.416 24.0625 10.3262C24.9258 9.8457 25.7148 9.60547 26.4297 9.60547C27.0625 9.60547 27.498 9.72266 27.7363 9.95703C27.959 10.1016 28.0703 10.3359 28.0703 10.6602C28.0703 10.7188 28.0625 10.8125 28.0469 10.9414C27.9531 11.2383 27.8086 11.4766 27.6133 11.6562C27.418 11.8359 27.123 12.0605 26.7285 12.3301C26.6738 12.373 26.543 12.4531 26.3359 12.5703C26.1328 12.6836 25.9785 12.793 25.873 12.8984C25.7715 13.0078 25.7207 13.1426 25.7207 13.3027C25.7715 13.3105 25.8906 13.3164 26.0781 13.3203C26.2656 13.3242 26.416 13.3438 26.5293 13.3789C26.6465 13.4102 26.7441 13.4805 26.8223 13.5898C26.8613 13.7109 26.8809 13.8223 26.8809 13.9238C26.8809 14.2441 26.7891 14.5508 26.6055 14.8438C26.4141 15.1992 26.1875 15.5273 25.9258 15.8281C25.6641 16.1289 25.3711 16.4082 25.0469 16.666C24.7227 16.9238 24.3867 17.1562 24.0391 17.3633C23.6953 17.5703 23.2949 17.791 22.8379 18.0254L21.7715 18.4062C21.1074 18.6094 20.4668 18.7109 19.8496 18.7109H19.8379C19.5684 18.707 19.2949 18.6465 19.0176 18.5293C18.7402 18.4121 18.5293 18.2539 18.3848 18.0547C18.2754 17.9375 18.2148 17.7266 18.2031 17.4219C18.2031 17.3008 18.2227 17.168 18.2617 17.0234C18.4102 16.5977 18.625 16.2285 18.9062 15.916C19.1836 15.5996 19.4824 15.3379 19.8027 15.1309C20.1191 14.9238 20.5625 14.6602 21.1328 14.3398C21.4844 14.168 21.998 13.9531 22.6738 13.6953C23.3418 13.4375 23.8867 13.2168 24.3086 13.0332C24.7344 12.8496 25.1562 12.6211 25.5742 12.3477C25.9961 12.0703 26.3477 11.748 26.6289 11.3809C26.6875 11.3027 26.7422 11.2285 26.793 11.1582C26.8477 11.084 26.8926 11.0137 26.9277 10.9473C26.9629 10.877 26.9805 10.8066 26.9805 10.7363C26.9805 10.7012 26.9727 10.6602 26.957 10.6133Z" fill="black"/>
<path d="M21.6543 12.5234C21.498 12.7422 21.2617 12.9746 20.9453 13.2207C20.6289 13.4668 20.418 13.6055 20.3125 13.6367C20.0234 13.8203 19.7266 13.9258 19.4219 13.9531C19.4297 13.7891 19.4785 13.6328 19.5684 13.4844C19.6621 13.332 19.7812 13.2188 19.9258 13.1445L20.4062 12.9805C20.7969 12.5352 20.9922 12.0898 20.9922 11.6445C20.9414 11.4688 20.791 11.3457 20.541 11.2754C20.4316 11.252 20.3184 11.2402 20.2012 11.2402C19.9395 11.2402 19.6875 11.293 19.4453 11.3984C19.2031 11.5039 19.0117 11.6504 18.8711 11.8379C18.75 12.0059 18.6895 12.207 18.6895 12.4414C18.9316 12.5352 19.0527 12.6387 19.0527 12.752C19.0449 12.9121 18.9277 13.0645 18.7012 13.209C18.5527 13.2793 18.4219 13.3145 18.3086 13.3145C18.2188 13.3145 18.0977 13.291 17.9453 13.2441C17.8555 13.1387 17.7324 13.0859 17.5762 13.0859C17.5137 13.0859 17.4453 13.0977 17.3711 13.1211C17.2188 13.2344 17.0781 13.291 16.9492 13.291C16.8555 13.291 16.7637 13.2637 16.6738 13.209C16.6152 13.1699 16.5645 13.1289 16.5215 13.0859C16.5215 13.043 16.5254 13.002 16.5332 12.9629C16.541 12.9238 16.5449 12.9043 16.5449 12.9043C16.5996 12.8496 16.6992 12.8066 16.8438 12.7754C17.1133 12.627 17.3379 12.4414 17.5176 12.2188C17.7012 11.9961 17.793 11.7812 17.793 11.5742C17.6445 11.543 17.4688 11.5273 17.2656 11.5273C16.8867 11.5273 16.5098 11.5918 16.1348 11.7207C15.7598 11.8496 15.4238 12.0332 15.127 12.2715C14.9277 12.4707 14.8281 12.666 14.8281 12.8574C14.832 12.8652 14.8398 12.8926 14.8516 12.9395C14.8672 12.9863 14.8906 13.0352 14.9219 13.0859C15.0508 13.0234 15.1992 12.9922 15.3672 12.9922C15.6055 12.9922 15.8223 13.0645 16.0176 13.209C16.0879 13.291 16.123 13.4258 16.123 13.6133C16.0059 13.8711 15.7383 14 15.3203 14H15.2969C15.1172 14 14.9531 13.8965 14.8047 13.6895C14.6641 13.5059 14.5547 13.2852 14.4766 13.0273C14.4531 12.9453 14.4414 12.8613 14.4414 12.7754C14.4414 12.5645 14.498 12.3496 14.6113 12.1309C14.7246 11.9082 14.8613 11.7305 15.0215 11.5977C15.6543 11.0938 16.3848 10.8418 17.2129 10.8418C17.6543 10.8418 18.0547 10.9082 18.4141 11.041C18.4883 11.1074 18.5762 11.1406 18.6777 11.1406C18.8027 11.1406 18.9316 11.0996 19.0645 11.0176C19.4121 10.8301 19.709 10.6895 19.9551 10.5957C20.2012 10.498 20.4512 10.4492 20.7051 10.4492C20.8809 10.4492 21.041 10.4766 21.1855 10.5312C21.5137 10.6797 21.7383 10.9473 21.8594 11.334C21.8984 11.4785 21.918 11.6152 21.918 11.7441C21.918 12.0371 21.8301 12.2969 21.6543 12.5234Z" fill="black"/>
<path d="M13.4922 10.6602C13.8867 10.6602 14.2227 10.8164 14.5 11.1289C14.5977 11.2734 14.6465 11.4219 14.6465 11.5742C14.6465 11.9883 14.3301 12.4004 13.6973 12.8105C12.9043 13.373 12.3281 13.7402 11.9688 13.9121C11.9492 13.916 11.8887 13.9375 11.7871 13.9766C11.6855 14.0156 11.6094 14.0352 11.5586 14.0352C11.5039 14.0352 11.4766 14.0039 11.4766 13.9414C11.5898 13.6953 11.7305 13.4961 11.8984 13.3438C12.0703 13.1914 12.3242 12.9863 12.6602 12.7285C13 12.4707 13.25 12.2539 13.4102 12.0781C13.5312 11.9102 13.5918 11.7832 13.5918 11.6973C13.5918 11.6426 13.5781 11.5977 13.5508 11.5625C13.5156 11.4219 13.3652 11.3516 13.0996 11.3516C12.6855 11.3516 12.1973 11.5293 11.6348 11.8848C11.4004 12.0371 11.2363 12.2012 11.1426 12.377C11.2949 12.4316 11.3711 12.5488 11.3711 12.7285C11.3711 12.9512 11.1387 13.0625 10.6738 13.0625C10.6309 13.0703 10.5547 13.0938 10.4453 13.1328C10.3398 13.1758 10.2637 13.1973 10.2168 13.1973C10.0371 13.1855 9.85742 13.1328 9.67773 13.0391C9.49414 12.9414 9.40234 12.8418 9.40234 12.7402C9.40234 12.6621 9.4668 12.5898 9.5957 12.5234C9.7207 12.4766 9.83594 12.4355 9.94141 12.4004C10.043 12.3613 10.1328 12.3066 10.2109 12.2363C10.2891 12.166 10.3281 12.0703 10.3281 11.9492C10.2695 11.7734 10.1406 11.6562 9.94141 11.5977C9.53906 11.5977 9.16211 11.6914 8.81055 11.8789C8.45898 12.0625 8.17578 12.2754 7.96094 12.5176C7.74609 12.7559 7.63867 12.9375 7.63867 13.0625L7.70898 13.168C7.9668 13.0664 8.16211 13.0156 8.29492 13.0156C8.56836 13.0156 8.75781 13.0996 8.86328 13.2676C8.89453 13.3105 8.91016 13.3711 8.91016 13.4492C8.91016 13.5938 8.83594 13.7266 8.6875 13.8477C8.54297 13.9648 8.32812 14.0273 8.04297 14.0352C7.69531 14.0352 7.50391 13.8711 7.46875 13.543C7.37891 13.5352 7.28125 13.4922 7.17578 13.4141C7.07031 13.332 7.00391 13.2422 6.97656 13.1445C6.96094 13.0977 6.95312 13.0625 6.95312 13.0391C6.95312 12.9531 6.98047 12.8691 7.03516 12.7871C7.09375 12.7051 7.16211 12.6523 7.24023 12.6289C7.36523 12.2812 7.61719 11.9473 7.99609 11.627C8.375 11.3066 8.75195 11.0801 9.12695 10.9473C9.43945 10.8496 9.72656 10.8008 9.98828 10.8008C10.5117 10.8008 10.8848 10.9551 11.1074 11.2637L11.2012 11.4453V11.4688L11.2598 11.6211C11.4629 11.5 11.6836 11.3691 11.9219 11.2285C12.1641 11.0879 12.4258 10.957 12.707 10.8359C12.9922 10.7188 13.2539 10.6602 13.4922 10.6602ZM24.5723 4.41992C24.6113 4.4043 24.6582 4.39648 24.7129 4.39648C24.8027 4.39648 24.8477 4.4375 24.8477 4.51953C24.8477 4.60547 24.8086 4.72852 24.7305 4.88867C24.543 5.08398 23.916 5.4082 22.8496 5.86133C21.7832 6.31055 20.4375 6.83008 18.8125 7.41992C17.1914 8.00586 15.543 8.57617 13.8672 9.13086C12.1953 9.68164 10.7578 10.1289 9.55469 10.4727C9.50781 10.4727 9.48438 10.4551 9.48438 10.4199C9.48438 10.3496 9.52148 10.2598 9.5957 10.1504C9.67383 10.0371 9.75 9.96875 9.82422 9.94531C10.7695 9.66016 11.959 9.25 13.3926 8.71484C14.8301 8.17578 16.3223 7.60156 17.8691 6.99219C19.416 6.38281 20.8848 5.80664 22.2754 5.26367C23.6621 4.7168 24.4277 4.43555 24.5723 4.41992Z" fill="black"/>
<path d="M2.04297 14.0117C1.83594 14.0078 1.62695 13.9277 1.41602 13.7715C1.20898 13.6113 1.07031 13.4102 1 13.168C0.984375 13.0898 0.976562 13.0234 0.976562 12.9688C0.976562 12.5977 1.11328 12.2441 1.38672 11.9082C1.67578 11.584 1.94922 11.3223 2.20703 11.123C2.46875 10.9238 2.75977 10.8145 3.08008 10.7949C3.08008 10.916 3.03711 11.0449 2.95117 11.1816C2.86523 11.3184 2.73242 11.5098 2.55273 11.7559C2.37305 11.998 2.23438 12.2129 2.13672 12.4004C2.04297 12.5879 1.99609 12.7773 1.99609 12.9688C2.04688 13.1211 2.19531 13.1973 2.44141 13.1973C2.53125 13.1973 2.65039 13.1797 2.79883 13.1445C3.52539 12.918 4.09766 12.6953 4.51562 12.4766C4.90234 12.1992 5.0957 11.8457 5.0957 11.416C5.0332 11.3809 4.92383 11.3477 4.76758 11.3164C4.61133 11.2852 4.49219 11.2539 4.41016 11.2227C4.33203 11.1914 4.26758 11.125 4.2168 11.0234C4.19336 10.9453 4.18164 10.873 4.18164 10.8066C4.18164 10.5801 4.26172 10.416 4.42188 10.3145C4.55859 10.1504 4.78711 10.0625 5.10742 10.0508C5.31836 10.0742 5.57422 10.2109 5.875 10.4609C5.9375 10.4766 6.0332 10.4844 6.16211 10.4844C6.38086 10.4844 6.58398 10.4355 6.77148 10.3379C6.95898 10.2402 7.0957 10.1172 7.18164 9.96875C7.24414 9.76562 7.27539 9.48828 7.27539 9.13672C7.27539 8.85938 7.25586 8.63281 7.2168 8.45703C7.18555 8.30859 7.16992 8.14062 7.16992 7.95312C7.18164 7.42578 7.35742 6.96875 7.69727 6.58203C8.2832 6.08984 8.77148 5.74609 9.16211 5.55078C10.0801 5.05469 11.0488 4.72656 12.0684 4.56641C12.1426 4.55859 12.2773 4.54688 12.4727 4.53125C13.2031 4.53125 13.7188 4.66797 14.0195 4.94141C14.0234 4.95703 14.0527 5.01172 14.1074 5.10547C14.1621 5.19531 14.1895 5.26367 14.1895 5.31055C14.1895 5.36133 14.166 5.39648 14.1191 5.41602C13.8027 5.22852 13.3301 5.13477 12.7012 5.13477C12.5293 5.14648 12.2324 5.17773 11.8105 5.22852C9.70117 5.69336 8.36133 6.48047 7.79102 7.58984C7.77539 7.78125 7.76758 7.91797 7.76758 8C7.76758 8.22656 7.78125 8.42969 7.80859 8.60938C7.83984 8.78516 7.88281 8.99414 7.9375 9.23633C7.99219 9.47852 8.02344 9.65039 8.03125 9.75195C8.03125 10.1621 7.88086 10.5059 7.58008 10.7832C7.2793 11.0605 6.93359 11.2402 6.54297 11.3223L5.99219 11.334C5.99219 11.6816 5.91602 11.9609 5.76367 12.1719C5.49023 12.5078 5.15625 12.8145 4.76172 13.0918C4.37109 13.3652 3.93945 13.5879 3.4668 13.7598C2.99414 13.9277 2.51953 14.0117 2.04297 14.0117Z" fill="black"/>
</svg>
