<?xml version="1.0" standalone="no"?>
<!DOCTYPE svg PUBLIC "-//W3C//DTD SVG 20010904//EN"
 "http://www.w3.org/TR/2001/REC-SVG-20010904/DTD/svg10.dtd">
<svg version="1.0" xmlns="http://www.w3.org/2000/svg"
 width="1000.000000pt" height="1080.000000pt" viewBox="0 0 1000.000000 1080.000000"
 preserveAspectRatio="xMidYMid meet">

<g transform="translate(0.000000,1080.000000) scale(0.100000,-0.100000)"
fill="#000000" stroke="none">
<path d="M4828 8565 c-251 -63 -458 -263 -536 -517 -48 -155 -49 -326 -2 -538
67 -307 260 -686 510 -999 l80 -101 0 -235 0 -235 -620 0 c-654 0 -663 -1
-700 -45 -12 -15 -16 -77 -20 -369 l-5 -351 -137 -5 c-201 -7 -182 35 -186
-422 -2 -268 1 -380 9 -401 23 -56 34 -57 434 -57 383 0 413 3 429 45 4 12 8
454 6 748 0 27 -7 45 -25 62 -23 24 -29 25 -160 25 l-135 0 0 265 0 265 555 0
555 0 0 -265 0 -265 -131 0 -131 0 -29 -29 -29 -29 0 -382 0 -382 29 -29 29
-29 382 0 382 0 29 29 29 29 0 382 0 382 -29 29 -29 29 -131 0 -131 0 0 265 0
265 555 0 555 0 0 -265 0 -265 -135 0 c-131 0 -137 -1 -160 -25 -18 -17 -25
-35 -25 -62 -2 -294 2 -736 6 -748 16 -42 46 -45 429 -45 400 0 411 1 434 57
8 21 11 133 9 401 -4 457 15 415 -186 422 l-137 5 -5 351 c-4 292 -8 354 -20
369 -37 44 -46 45 -700 45 l-620 0 0 236 0 235 76 96 c180 223 361 536 444
766 83 230 122 488 101 653 -39 292 -230 526 -506 620 -69 24 -99 28 -215 30
-93 3 -153 -1 -192 -11z m253 -319 c86 -18 140 -46 201 -104 59 -55 94 -111
119 -193 59 -189 -34 -395 -219 -487 -73 -36 -80 -37 -182 -37 -102 0 -109 1
-182 38 -259 128 -316 451 -117 662 59 63 128 102 212 120 80 17 89 17 168 1z"/>
<path d="M2552 7243 c-18 -9 -45 -32 -60 -51 l-27 -35 -3 -1599 -2 -1598 175
0 175 0 0 1475 0 1475 624 0 625 0 -31 66 c-17 37 -48 114 -68 173 l-38 106
-668 2 c-603 2 -672 1 -702 -14z"/>
<path d="M6075 7248 c-2 -7 -18 -53 -35 -101 -17 -48 -46 -121 -65 -162 l-34
-75 625 0 624 0 0 -1475 0 -1475 175 0 175 0 0 1586 c0 1766 6 1626 -68 1682
l-35 27 -679 3 c-541 2 -679 0 -683 -10z"/>
<path d="M1950 3594 c0 -38 47 -171 82 -234 17 -30 70 -94 118 -141 68 -68
103 -95 170 -127 172 -85 -92 -77 2680 -77 2772 0 2508 -8 2680 77 67 33 102
59 170 127 48 47 101 112 118 143 37 66 82 194 82 232 l0 26 -3050 0 -3050 0
0 -26z"/>
<path d="M0 400 l0 -400 5000 0 5000 0 0 400 0 400 -5000 0 -5000 0 0 -400z
m2192 123 c23 -20 23 -57 1 -74 -15 -11 -16 -11 -5 1 27 31 11 72 -33 83 -19
4 -19 5 -1 6 11 0 28 -6 38 -16z m-69 -8 c-3 -9 -8 -14 -10 -11 -3 3 -2 9 2
15 9 16 15 13 8 -4z m-1760 -114 c22 -61 43 -108 47 -104 4 4 24 56 45 116 21
59 42 107 47 107 11 0 9 -5 -42 -149 -23 -64 -44 -107 -53 -109 -15 -3 -17 0
-67 143 -15 44 -31 88 -36 99 -5 13 -3 17 6 14 8 -2 32 -55 53 -117z m517 89
c0 -23 4 -30 20 -30 11 0 20 -4 20 -10 0 -5 -10 -10 -21 -10 -20 0 -21 -4 -17
-71 3 -55 8 -74 23 -85 23 -17 14 -29 -13 -15 -11 6 -22 25 -26 42 -10 51 -7
209 4 209 6 0 10 -13 10 -30z m515 16 c25 -11 33 -19 29 -30 -7 -19 -5 -19
-40 -1 -36 18 -55 19 -78 2 -28 -21 -9 -45 49 -62 87 -25 108 -74 54 -127 -29
-29 -33 -30 -90 -25 -68 6 -72 8 -64 29 5 13 12 14 40 5 50 -15 100 1 100 33
0 16 -8 28 -25 36 -87 40 -105 51 -108 67 -14 70 53 106 133 73z m105 -16 c0
-25 4 -30 25 -30 16 0 25 -6 25 -15 0 -9 -9 -15 -25 -15 -24 0 -25 -3 -25 -60
0 -55 2 -62 25 -72 14 -6 25 -15 25 -20 0 -18 -31 -20 -55 -4 -24 16 -25 20
-25 131 0 96 3 115 15 115 10 0 15 -10 15 -30z m482 -32 l3 -62 36 32 c20 18
45 32 55 32 14 0 9 -9 -21 -40 l-39 -40 42 -60 c40 -57 41 -60 20 -60 -16 0
-32 14 -53 45 -16 25 -33 45 -37 45 -5 0 -8 -20 -8 -45 0 -38 -3 -45 -20 -45
-19 0 -20 7 -20 130 0 122 1 130 20 130 16 0 19 -8 22 -62z m193 30 c1 -20 -2
-24 -11 -17 -8 7 -14 6 -17 -3 -3 -7 -6 2 -6 20 -1 27 3 33 17 30 11 -2 17
-13 17 -30z m-44 -35 c13 -16 12 -17 -3 -4 -17 13 -22 21 -14 21 2 0 10 -8 17
-17z m-1502 -19 c12 -15 21 -40 21 -55 0 -29 0 -29 -65 -29 -72 0 -83 -12 -44
-51 17 -17 30 -20 65 -16 43 4 59 -5 28 -17 -45 -17 -106 3 -123 41 -45 98 56
206 118 127z m191 16 c17 -11 10 -13 -40 -10 -47 2 -75 -28 -75 -80 0 -55 26
-80 82 -80 27 0 42 -4 38 -10 -9 -15 -78 -12 -102 5 -50 35 -50 135 0 170 24
17 74 20 97 5z m265 -13 c20 -16 28 -35 32 -69 5 -42 3 -50 -25 -78 -41 -41
-83 -41 -124 0 -28 28 -30 36 -25 78 9 82 84 119 142 69z m85 7 c0 -14 2 -14
22 0 24 17 38 20 38 9 0 -5 -14 -16 -30 -25 -29 -17 -30 -19 -30 -93 0 -43 -4
-75 -10 -75 -6 0 -10 40 -10 100 0 60 4 100 10 100 6 0 10 -7 10 -16z m537 1
c30 -21 44 -75 32 -120 -25 -88 -143 -88 -168 0 -20 72 20 135 84 135 17 0 40
-7 52 -15z m198 -5 c0 -10 -8 -14 -27 -12 -58 6 -91 -42 -67 -100 11 -28 36
-40 74 -35 12 1 20 -4 20 -13 0 -19 -48 -25 -85 -10 -63 26 -68 148 -6 179 31
15 91 9 91 -9z m5374 -83 c8 -26 17 -47 21 -47 4 0 13 21 21 47 8 25 20 48 27
51 8 2 4 -19 -12 -63 -36 -99 -36 -99 -72 0 -16 44 -20 65 -12 63 7 -3 19 -26
27 -51z m638 36 c3 -8 -6 -11 -24 -10 -35 3 -37 -19 -3 -36 33 -16 40 -63 11
-72 -24 -7 -61 2 -61 15 0 5 14 7 30 4 22 -5 30 -3 30 8 0 8 -13 24 -30 36
-32 24 -37 41 -18 60 15 15 60 12 65 -5z m333 -18 c0 -37 10 -44 30 -20 7 8
17 15 22 15 6 0 5 -7 -2 -15 -12 -14 -11 -29 5 -67 11 -27 -10 -21 -25 7 -7
14 -17 25 -22 25 -4 0 -8 -11 -8 -25 0 -14 -4 -25 -10 -25 -6 0 -10 30 -10 70
0 40 4 70 10 70 6 0 10 -16 10 -35z m580 32 c0 -4 -34 -104 -45 -136 -3 -8 -8
-11 -11 -8 -8 7 38 147 48 147 4 0 8 -2 8 -3z m100 -11 c0 -7 -6 -19 -14 -25
-13 -11 -12 -15 5 -32 23 -23 24 -33 3 -53 -16 -17 -33 -20 -58 -10 -26 10
-18 25 10 18 17 -4 29 -2 35 7 10 16 -7 39 -29 39 -13 0 -13 2 1 18 23 25 21
32 -8 32 -14 0 -25 5 -25 10 0 6 18 10 40 10 27 0 40 -4 40 -14z m120 9 c0 -6
-60 -127 -66 -134 -2 -2 -7 -2 -10 1 -3 3 6 29 20 57 14 28 26 53 26 56 0 3
-13 5 -30 5 -16 0 -30 5 -30 10 0 6 20 10 45 10 25 0 45 -2 45 -5z m94 -4 c3
-5 -8 -11 -24 -15 -32 -6 -41 -26 -12 -26 24 0 42 -19 42 -45 0 -43 -39 -58
-72 -28 -39 35 -8 122 44 123 9 0 19 -4 22 -9z m106 -10 c14 -28 14 -28 -27
-66 l-38 -35 38 0 c20 0 37 -4 37 -10 0 -5 -20 -10 -45 -10 -55 0 -60 19 -15
58 17 15 30 35 30 45 0 16 -5 18 -32 11 -29 -6 -31 -5 -19 10 18 22 58 20 71
-3z m110 9 c0 -5 -11 -10 -25 -10 -32 0 -33 -26 -1 -34 13 -3 27 -13 30 -22
15 -40 -21 -73 -64 -59 -31 10 -24 23 13 21 26 -1 32 3 32 19 0 15 -8 21 -30
23 -29 3 -31 5 -27 37 4 32 7 35 38 35 19 0 34 -4 34 -10z m111 -6 c7 -9 14
-33 14 -54 0 -65 -47 -93 -79 -48 -43 61 19 157 65 102z m123 7 c3 -5 -8 -11
-24 -15 -32 -6 -41 -26 -12 -26 24 0 42 -19 42 -45 0 -43 -39 -58 -72 -28 -39
35 -8 122 44 123 9 0 19 -4 22 -9z m106 -10 c14 -28 14 -28 -27 -66 l-38 -35
38 0 c20 0 37 -4 37 -10 0 -5 -20 -10 -45 -10 -55 0 -60 19 -15 58 17 15 30
35 30 45 0 16 -5 18 -32 11 -29 -6 -31 -5 -19 10 18 22 58 20 71 -3z m-2082
-18 c12 -12 13 -18 4 -21 -14 -4 -17 -62 -2 -62 6 0 10 -5 10 -11 0 -6 -8 -9
-17 -7 -25 5 -40 118 -16 118 2 0 12 -8 21 -17z m360 0 c12 -12 13 -18 4 -21
-14 -4 -17 -62 -2 -62 6 0 10 -5 10 -11 0 -6 -8 -9 -17 -7 -25 5 -40 118 -16
118 2 0 12 -8 21 -17z m-530 -15 c23 -23 13 -38 -24 -38 -24 0 -34 -4 -31 -12
2 -7 16 -13 30 -13 30 1 36 -12 11 -22 -28 -11 -64 14 -64 45 0 33 16 52 45
52 12 0 26 -5 33 -12z m109 -3 c2 -6 -9 -11 -24 -10 -23 0 -28 -4 -28 -25 0
-21 5 -25 28 -25 15 1 26 -4 24 -10 -5 -15 -46 -18 -63 -5 -17 15 -18 62 -2
78 15 15 60 12 65 -3z m177 -1 c9 -8 16 -24 16 -34 0 -22 -26 -50 -46 -50 -32
0 -54 21 -54 50 0 45 52 66 84 34z m56 5 c0 -8 5 -7 15 1 24 20 29 4 6 -19
-12 -12 -21 -32 -21 -46 0 -14 -4 -25 -10 -25 -5 0 -10 23 -10 50 0 28 5 50
10 50 6 0 10 -5 10 -11z m304 -5 c9 -8 16 -24 16 -34 0 -22 -26 -50 -46 -50
-32 0 -54 21 -54 50 0 45 52 66 84 34z m113 1 c2 -6 -9 -11 -24 -10 -23 0 -28
-4 -28 -25 0 -21 5 -25 28 -25 15 1 26 -4 24 -10 -5 -15 -46 -18 -63 -5 -20
17 -18 67 4 79 20 13 54 10 59 -4z m250 0 c2 -6 -9 -11 -24 -10 -23 0 -28 -4
-28 -25 0 -21 5 -25 28 -25 15 1 26 -4 24 -10 -5 -15 -46 -18 -63 -5 -20 17
-18 67 4 79 20 13 54 10 59 -4z m107 -1 c9 -8 16 -24 16 -34 0 -22 -26 -50
-46 -50 -32 0 -54 21 -54 50 0 45 52 66 84 34z m56 6 c0 -6 8 -5 20 2 15 9 22
10 31 1 8 -8 16 -9 29 -1 32 20 50 3 50 -47 0 -25 -4 -45 -10 -45 -5 0 -10 18
-10 41 0 33 -3 40 -17 37 -13 -2 -19 -14 -21 -41 -4 -47 -22 -49 -22 -3 0 19
-5 38 -10 41 -18 11 -40 -15 -40 -46 0 -16 -4 -29 -10 -29 -5 0 -10 23 -10 50
0 28 5 50 10 50 6 0 10 -5 10 -10z m-270 -80 c0 -5 -4 -10 -10 -10 -5 0 -10 5
-10 10 0 6 5 10 10 10 6 0 10 -4 10 -10z"/>
<path d="M2150 500 c0 -5 5 -10 10 -10 6 0 10 5 10 10 0 6 -4 10 -10 10 -5 0
-10 -4 -10 -10z"/>
<path d="M536 418 c-28 -39 -21 -48 39 -48 59 0 67 9 45 51 -15 27 -64 25 -84
-3z"/>
<path d="M986 424 c-50 -50 -21 -144 44 -144 48 0 80 50 66 104 -13 53 -75 75
-110 40z"/>
<path d="M1616 408 c-32 -46 -8 -118 39 -118 28 0 55 34 55 70 0 36 -27 70
-55 70 -13 0 -31 -10 -39 -22z"/>
<path d="M9085 330 c-8 -13 13 -40 30 -40 18 0 26 25 12 39 -14 14 -34 14 -42
1z"/>
<path d="M9422 378 c-17 -17 -15 -63 4 -79 14 -11 18 -10 30 6 17 22 18 40 4
66 -12 22 -21 24 -38 7z"/>
<path d="M9535 330 c-8 -13 13 -40 30 -40 18 0 26 25 12 39 -14 14 -34 14 -42
1z"/>
<path d="M7398 343 c6 -2 18 -2 25 0 6 3 1 5 -13 5 -14 0 -19 -2 -12 -5z"/>
<path d="M7674 336 c-10 -26 4 -48 28 -44 17 2 23 10 23 28 0 18 -6 26 -23 28
-13 2 -25 -3 -28 -12z"/>
<path d="M8034 336 c-10 -26 4 -48 28 -44 17 2 23 10 23 28 0 18 -6 26 -23 28
-13 2 -25 -3 -28 -12z"/>
<path d="M8504 336 c-10 -26 4 -48 28 -44 17 2 23 10 23 28 0 18 -6 26 -23 28
-13 2 -25 -3 -28 -12z"/>
</g>
</svg>
